<?xml version="1.0" encoding="UTF-8" standalone="no"?>
<svg width="64px" height="64px" viewBox="0 0 64 64" version="1.1" xmlns="http://www.w3.org/2000/svg" xmlns:xlink="http://www.w3.org/1999/xlink">
    <!-- Generator: Sketch 46 (44423) - http://www.bohemiancoding.com/sketch -->
    <title>seo media search optimize page</title>
    <desc>Created with Sketch.</desc>
    <defs></defs>
    <g id="Page-1" stroke="none" stroke-width="1" fill="none" fill-rule="evenodd">
        <g id="icons-copy" transform="translate(-255.000000, -407.000000)" fill="#EB8336">
            <g id="seo-media-search-optimize-page" transform="translate(255.000000, 407.000000)">
                <path d="M63,50 L45,50 C44.44775,50 44,49.55273 44,49 C44,48.44727 44.44775,48 45,48 L62,48 L62,2 L2,2 L2,48 L41,48 C41.55225,48 42,48.44727 42,49 C42,49.55273 41.55225,50 41,50 L1,50 C0.44775,50 0,49.55273 0,49 L0,1 C0,0.44727 0.44775,0 1,0 L63,0 C63.55225,0 64,0.44727 64,1 L64,49 C64,49.55273 63.55225,50 63,50 L63,50 Z" id="Shape"></path>
                <path d="M63,10 L1,10 C0.44775,10 0,9.55273 0,9 C0,8.44727 0.44775,8 1,8 L63,8 C63.55225,8 64,8.44727 64,9 C64,9.55273 63.55225,10 63,10 L63,10 Z" id="Shape"></path>
                <path d="M51,6 C50.73975,6 50.47998,5.88965 50.29004,5.70996 C50.10986,5.51953 50,5.25977 50,5 C50,4.74023 50.10986,4.47949 50.29004,4.29004 C50.66992,3.91992 51.33984,3.91992 51.70996,4.29004 C51.88965,4.47949 52,4.74023 52,5 C52,5.26953 51.88965,5.51953 51.70996,5.70996 C51.52002,5.88965 51.27002,6 51,6 L51,6 Z" id="Shape"></path>
                <path d="M55,6 C54.72998,6 54.47998,5.88965 54.29004,5.7002 C54.10986,5.51953 54,5.26953 54,5 C54,4.72949 54.10986,4.47949 54.29004,4.29004 C54.65967,3.91992 55.33984,3.91992 55.70996,4.29004 C55.88965,4.47949 56,4.74023 56,5 C56,5.26953 55.88965,5.51953 55.70996,5.70996 C55.52002,5.88965 55.27002,6 55,6 L55,6 Z" id="Shape"></path>
                <path d="M59,6 C58.72998,6 58.47998,5.88965 58.29004,5.7002 C58.10986,5.51953 58,5.26953 58,5 C58,4.74023 58.10986,4.47949 58.29004,4.29004 C58.65967,3.91992 59.33984,3.91992 59.70996,4.29004 C59.88965,4.47949 60,4.72949 60,5 C60,5.26953 59.88965,5.51953 59.69971,5.70996 C59.52002,5.88965 59.27002,6 59,6 L59,6 Z" id="Shape"></path>
                <path d="M47,10 C46.44775,10 46,9.55273 46,9 L46,1 C46,0.44727 46.44775,0 47,0 C47.55225,0 48,0.44727 48,1 L48,9 C48,9.55273 47.55225,10 47,10 L47,10 Z" id="Shape"></path>
                <path d="M43,44 C34.729,44 28,37.27148 28,29 C28,20.72852 34.729,14 43,14 C51.271,14 58,20.72852 58,29 C58,37.27148 51.271,44 43,44 L43,44 Z M43,16 C35.83154,16 30,21.83203 30,29 C30,36.16797 35.83154,42 43,42 C50.16846,42 56,36.16797 56,29 C56,21.83203 50.16846,16 43,16 L43,16 Z" id="Shape"></path>
                <path d="M43,40 C36.93457,40 32,35.06543 32,29 C32,22.93457 36.93457,18 43,18 C49.06543,18 54,22.93457 54,29 C54,35.06543 49.06543,40 43,40 L43,40 Z M43,20 C38.0376,20 34,24.03711 34,29 C34,33.96289 38.0376,38 43,38 C47.9624,38 52,33.96289 52,29 C52,24.03711 47.9624,20 43,20 L43,20 Z" id="Shape"></path>
                <path d="M46,64 L40,64 C39.44775,64 39,63.55273 39,63 L39,53 C39,52.44727 39.44775,52 40,52 L46,52 C46.55225,52 47,52.44727 47,53 L47,63 C47,63.55273 46.55225,64 46,64 L46,64 Z M41,62 L45,62 L45,54 L41,54 L41,62 L41,62 Z" id="Shape"></path>
                <path d="M45,54 L41,54 C40.44775,54 40,53.55273 40,53 L40,42.86035 C40,42.30762 40.44775,41.86035 41,41.86035 C41.55225,41.86035 42,42.30762 42,42.86035 L42,52 L44,52 L44,42.86035 C44,42.30762 44.44775,41.86035 45,41.86035 C45.55225,41.86035 46,42.30762 46,42.86035 L46,53 C46,53.55273 45.55225,54 45,54 L45,54 Z" id="Shape"></path>
                <path d="M43,30 C42.73975,30 42.47998,29.88965 42.29004,29.70996 C42.10986,29.51953 42,29.26953 42,29 C42,28.72949 42.10986,28.46973 42.29004,28.29004 C42.66992,27.91992 43.33984,27.91992 43.70996,28.29004 C43.88965,28.47949 44,28.74023 44,29 C44,29.25977 43.88965,29.51953 43.70996,29.70996 C43.52002,29.88965 43.25977,30 43,30 L43,30 Z" id="Shape"></path>
                <path d="M47,30 C46.73975,30 46.47998,29.88965 46.29004,29.70996 C46.10986,29.51953 46,29.25977 46,29 C46,28.74023 46.10986,28.47949 46.29004,28.29004 C46.66992,27.91992 47.32959,27.91992 47.70996,28.29004 C47.88965,28.47949 48,28.74023 48,29 C48,29.25977 47.88965,29.51953 47.70996,29.70996 C47.52002,29.88965 47.25977,30 47,30 L47,30 Z" id="Shape"></path>
                <path d="M39,30 C38.73975,30 38.47998,29.88965 38.29004,29.70996 C38.10986,29.51953 38,29.25977 38,29 C38,28.74023 38.10986,28.47949 38.29004,28.29004 C38.66992,27.91992 39.32959,27.91992 39.70996,28.29004 C39.88965,28.47949 40,28.74023 40,29 C40,29.25977 39.88965,29.51953 39.70996,29.70996 C39.52002,29.88965 39.25977,30 39,30 L39,30 Z" id="Shape"></path>
                <path d="M29.6001,42 L7,42 C6.44775,42 6,41.55273 6,41 C6,40.44727 6.44775,40 7,40 L29.6001,40 C30.15235,40 30.6001,40.44727 30.6001,41 C30.6001,41.55273 30.15234,42 29.6001,42 L29.6001,42 Z" id="Shape"></path>
                <path d="M25.45996,34 L7,34 C6.44775,34 6,33.55273 6,33 C6,32.44727 6.44775,32 7,32 L25.45996,32 C26.01221,32 26.45996,32.44727 26.45996,33 C26.45996,33.55273 26.01221,34 25.45996,34 L25.45996,34 Z" id="Shape"></path>
                <path d="M25.45996,26 L7,26 C6.44775,26 6,25.55273 6,25 C6,24.44727 6.44775,24 7,24 L25.45996,24 C26.01221,24 26.45996,24.44727 26.45996,25 C26.45996,25.55273 26.01221,26 25.45996,26 L25.45996,26 Z" id="Shape"></path>
                <path d="M29.6001,18 L7,18 C6.44775,18 6,17.55273 6,17 C6,16.44727 6.44775,16 7,16 L29.6001,16 C30.15235,16 30.6001,16.44727 30.6001,17 C30.6001,17.55273 30.15234,18 29.6001,18 L29.6001,18 Z" id="Shape"></path>
            </g>
        </g>
    </g>
</svg>