<?xml version="1.0" encoding="UTF-8" standalone="no"?>
<svg width="64px" height="64px" viewBox="0 0 64 64" version="1.1" xmlns="http://www.w3.org/2000/svg" xmlns:xlink="http://www.w3.org/1999/xlink">
    <!-- Generator: Sketch 46 (44423) - http://www.bohemiancoding.com/sketch -->
    <title>mass comms icon</title>
    <desc>Created with Sketch.</desc>
    <defs></defs>
    <g id="Page-1" stroke="none" stroke-width="1" fill="none" fill-rule="evenodd">
        <g id="icons-copy" transform="translate(-862.000000, -535.000000)" fill="#EB8336">
            <g id="mass-comms-icon" transform="translate(862.000000, 535.000000)">
                <g id="Proximo">
                    <g id="XMLID_45_">
                        <g id="XMLID_254_" transform="translate(0.000000, 12.000000)">
                            <g id="XMLID_81_">
                                <path d="M61,46 L3,46 C1.3457,46 0,44.6543 0,43 L0,3 C0,1.3457 1.3457,0 3,0 L20,0 C20.55225,0 21,0.44727 21,1 C21,1.55273 20.55225,2 20,2 L3,2 C2.44873,2 2,2.44824 2,3 L2,43 C2,43.55176 2.44873,44 3,44 L61,44 C61.55127,44 62,43.55176 62,43 L62,3 C62,2.44824 61.55127,2 61,2 L44,2 C43.44775,2 43,1.55273 43,1 C43,0.44727 43.44775,0 44,0 L61,0 C62.6543,0 64,1.3457 64,3 L64,43 C64,44.6543 62.6543,46 61,46 L61,46 Z" id="Shape"></path>
                            </g>
                            <g id="XMLID_75_" transform="translate(4.000000, 4.000000)">
                                <path d="M55,32 L1,32 C0.44775,32 0,31.55273 0,31 L0,1 C0,0.44727 0.44775,0 1,0 L16,0 C16.55225,0 17,0.44727 17,1 C17,1.55273 16.55225,2 16,2 L2,2 L2,30 L54,30 L54,2 L40,2 C39.44775,2 39,1.55273 39,1 C39,0.44727 39.44775,0 40,0 L55,0 C55.55225,0 56,0.44727 56,1 L56,31 C56,31.55273 55.55225,32 55,32 L55,32 Z" id="Shape"></path>
                            </g>
                            <g id="XMLID_281_" transform="translate(24.000000, 44.000000)">
                                <path d="M15.02002,8 L15,8 L1,8 C0.67871,8 0.37695,7.8457 0.18896,7.58496 C0.00097,7.32422 -0.0503,6.98828 0.05126,6.68359 L2.05126,0.68359 C2.1875,0.27539 2.56934,0 3,0 L13,0 C13.43066,0 13.8125,0.27539 13.94873,0.68359 L15.88916,6.50488 C15.97217,6.65136 16.02002,6.82031 16.02002,7 C16.02002,7.55273 15.57227,8 15.02002,8 L15.02002,8 Z M2.38721,6 L13.6128,6 L12.2793,2 L3.7207,2 L2.38721,6 L2.38721,6 Z" id="Shape"></path>
                            </g>
                            <g id="XMLID_280_" transform="translate(0.000000, 38.000000)">
                                <path d="M63,2 L1,2 C0.44775,2 0,1.55273 0,1 C0,0.44727 0.44775,0 1,0 L63,0 C63.55225,0 64,0.44727 64,1 C64,1.55273 63.55225,2 63,2 L63,2 Z" id="Shape"></path>
                            </g>
                            <g id="XMLID_279_" transform="translate(20.000000, 50.000000)">
                                <path d="M23,2 L1,2 C0.44775,2 0,1.55273 0,1 C0,0.44727 0.44775,0 1,0 L23,0 C23.55225,0 24,0.44727 24,1 C24,1.55273 23.55225,2 23,2 L23,2 Z" id="Shape"></path>
                            </g>
                            <g id="XMLID_278_" transform="translate(31.000000, 41.000000)">
                                <path d="M1,2 C0.73975,2 0.47998,1.88965 0.29004,1.70996 C0.10986,1.51953 0,1.25977 0,1 C0,0.74023 0.10986,0.47949 0.29004,0.29004 C0.66992,-0.08008 1.33984,-0.08008 1.70996,0.29004 C1.88965,0.47949 2,0.74023 2,1 C2,1.25977 1.88965,1.51953 1.70996,1.70996 C1.52002,1.88965 1.25977,2 1,2 L1,2 Z" id="Shape"></path>
                            </g>
                        </g>
                        <g id="XMLID_255_" transform="translate(31.000000, 0.000000)">
                            <path d="M1,40 C0.44775,40 0,39.55273 0,39 L0,1 C0,0.44727 0.44775,0 1,0 C1.55225,0 2,0.44727 2,1 L2,39 C2,39.55273 1.55225,40 1,40 L1,40 Z" id="Shape"></path>
                        </g>
                        <g id="XMLID_256_" transform="translate(35.000000, 2.000000)">
                            <path d="M1,36 C0.44775,36 0,35.55273 0,35 L0,1 C0,0.44727 0.44775,0 1,0 C1.55225,0 2,0.44727 2,1 L2,35 C2,35.55273 1.55225,36 1,36 L1,36 Z" id="Shape"></path>
                        </g>
                        <g id="XMLID_257_" transform="translate(27.000000, 4.000000)">
                            <path d="M1,34 C0.44775,34 0,33.55273 0,33 L0,1 C0,0.44727 0.44775,0 1,0 C1.55225,0 2,0.44727 2,1 L2,33 C2,33.55273 1.55225,34 1,34 L1,34 Z" id="Shape"></path>
                        </g>
                        <g id="XMLID_258_" transform="translate(39.000000, 6.000000)">
                            <path d="M1,30 C0.44775,30 0,29.55273 0,29 L0,1 C0,0.44727 0.44775,0 1,0 C1.55225,0 2,0.44727 2,1 L2,29 C2,29.55273 1.55225,30 1,30 L1,30 Z" id="Shape"></path>
                        </g>
                        <g id="XMLID_259_" transform="translate(23.000000, 8.000000)">
                            <path d="M1,28 C0.44775,28 0,27.55273 0,27 L0,1 C0,0.44727 0.44775,0 1,0 C1.55225,0 2,0.44727 2,1 L2,27 C2,27.55273 1.55225,28 1,28 L1,28 Z" id="Shape"></path>
                        </g>
                        <g id="XMLID_264_" transform="translate(12.000000, 0.000000)">
                            <path d="M20,2 L1,2 C0.44775,2 0,1.55273 0,1 C0,0.44727 0.44775,0 1,0 L20,0 C20.55225,0 21,0.44727 21,1 C21,1.55273 20.55225,2 20,2 L20,2 Z" id="Shape"></path>
                        </g>
                        <g id="XMLID_265_" transform="translate(35.000000, 2.000000)">
                            <path d="M13,2 L1,2 C0.44775,2 0,1.55273 0,1 C0,0.44727 0.44775,0 1,0 L13,0 C13.55225,0 14,0.44727 14,1 C14,1.55273 13.55225,2 13,2 L13,2 Z" id="Shape"></path>
                        </g>
                        <g id="XMLID_267_" transform="translate(19.000000, 4.000000)">
                            <path d="M9,2 L1,2 C0.44775,2 0,1.55273 0,1 C0,0.44727 0.44775,0 1,0 L9,0 C9.55225,0 10,0.44727 10,1 C10,1.55273 9.55225,2 9,2 L9,2 Z" id="Shape"></path>
                        </g>
                        <g id="XMLID_268_" transform="translate(11.000000, 8.000000)">
                            <path d="M13,2 L1,2 C0.44775,2 0,1.55273 0,1 C0,0.44727 0.44775,0 1,0 L13,0 C13.55225,0 14,0.44727 14,1 C14,1.55273 13.55225,2 13,2 L13,2 Z" id="Shape"></path>
                        </g>
                        <g id="XMLID_41_" transform="translate(39.000000, 6.000000)">
                            <path d="M17,2 L1,2 C0.44775,2 0,1.55273 0,1 C0,0.44727 0.44775,0 1,0 L17,0 C17.55225,0 18,0.44727 18,1 C18,1.55273 17.55225,2 17,2 L17,2 Z" id="Shape"></path>
                        </g>
                        <g id="XMLID_43_" transform="translate(9.000000, 0.000000)">
                            <path d="M1,2 C0.73975,2 0.47998,1.88965 0.29004,1.70996 C0.10986,1.51953 0,1.26953 0,1 C0,0.74023 0.10986,0.47949 0.29004,0.29004 C0.65967,-0.08008 1.33984,-0.08008 1.70996,0.29004 C1.88965,0.47949 2,0.74023 2,1 C2,1.25977 1.88965,1.51953 1.70996,1.70996 C1.52002,1.88965 1.25977,2 1,2 L1,2 Z" id="Shape"></path>
                        </g>
                        <g id="XMLID_44_" transform="translate(5.000000, 0.000000)">
                            <path d="M1,2 C0.73975,2 0.47998,1.88965 0.29004,1.70996 C0.10986,1.51953 0,1.25977 0,1 C0,0.74023 0.10986,0.47949 0.29004,0.29004 C0.66992,-0.08008 1.33984,-0.08008 1.70996,0.29004 C1.88965,0.47949 2,0.74023 2,1 C2,1.25977 1.88965,1.51953 1.70996,1.70996 C1.52002,1.88965 1.27002,2 1,2 L1,2 Z" id="Shape"></path>
                        </g>
                        <g id="XMLID_46_" transform="translate(58.000000, 6.000000)">
                            <path d="M1,2 C0.73975,2 0.47998,1.88965 0.29004,1.70996 C0.10986,1.51953 0,1.25977 0,1 C0,0.72949 0.10986,0.47949 0.29004,0.29004 C0.65967,-0.08008 1.33984,-0.08008 1.70996,0.29004 C1.88965,0.47949 2,0.74023 2,1 C2,1.25977 1.88965,1.51953 1.70996,1.70996 C1.52002,1.88965 1.25977,2 1,2 L1,2 Z" id="Shape"></path>
                        </g>
                    </g>
                </g>
            </g>
        </g>
    </g>
</svg>