<?xml version="1.0" encoding="UTF-8" standalone="no"?>
<svg width="64px" height="64px" viewBox="0 0 64 64" version="1.1" xmlns="http://www.w3.org/2000/svg" xmlns:xlink="http://www.w3.org/1999/xlink">
    <!-- Generator: Sketch 46 (44423) - http://www.bohemiancoding.com/sketch -->
    <title>seo media cloud computing copy</title>
    <desc>Created with Sketch.</desc>
    <defs></defs>
    <g id="Page-1" stroke="none" stroke-width="1" fill="none" fill-rule="evenodd">
        <g id="icons-copy" transform="translate(-262.000000, -690.000000)" fill="#EB8336">
            <g id="seo-media-cloud-computing-copy" transform="translate(262.000000, 690.000000)">
                <path d="M5,33 C4.44727,33 4,32.55273 4,32 C4,30.51562 4.27051,29.06445 4.80273,27.68652 C5.31738,26.35058 6.0625,25.12695 7.01562,24.05078 C7.38378,23.63867 8.01464,23.60058 8.42773,23.96484 C8.84082,24.33105 8.87988,24.96386 8.51367,25.37695 C7.71875,26.27441 7.09765,27.29394 6.66797,28.40722 C6.22461,29.55469 6,30.7627 6,32 C6,32.55273 5.55273,33 5,33 L5,33 Z" id="Shape"></path>
                <path d="M10.25195,23.62695 C9.91601,23.62695 9.58886,23.458 9.39941,23.15136 C9.11035,22.68163 9.25586,22.06542 9.72656,21.77538 C9.93261,21.64843 10.14355,21.52831 10.3584,21.41405 C10.84473,21.15721 11.45215,21.33983 11.71094,21.82714 C11.97071,22.31444 11.78516,22.91991 11.29785,23.17968 C11.12012,23.27441 10.94629,23.37304 10.77539,23.47851 C10.6123,23.5791 10.43066,23.62695 10.25195,23.62695 L10.25195,23.62695 Z" id="Shape"></path>
                <path d="M15,64 L1,64 C0.44727,64 0,63.55273 0,63 L0,51 C0,50.44727 0.44727,50 1,50 L15,50 C15.55273,50 16,50.44727 16,51 L16,63 C16,63.55273 15.55273,64 15,64 L15,64 Z M2,62 L14,62 L14,52 L2,52 L2,62 L2,62 Z" id="Shape"></path>
                <path d="M39,64 L25,64 C24.44727,64 24,63.55273 24,63 L24,51 C24,50.44727 24.44727,50 25,50 L39,50 C39.55273,50 40,50.44727 40,51 L40,63 C40,63.55273 39.55273,64 39,64 L39,64 Z M26,62 L38,62 L38,52 L26,52 L26,62 L26,62 Z" id="Shape"></path>
                <path d="M63,64 L49,64 C48.44727,64 48,63.55273 48,63 L48,51 C48,50.44727 48.44727,50 49,50 L63,50 C63.55273,50 64,50.44727 64,51 L64,63 C64,63.55273 63.55273,64 63,64 L63,64 Z M50,62 L62,62 L62,52 L50,52 L50,62 L50,62 Z" id="Shape"></path>
                <path d="M32,52 C31.44727,52 31,51.55273 31,51 L31,33 C31,32.44727 31.44727,32 32,32 C32.55273,32 33,32.44727 33,33 L33,51 C33,51.55273 32.55273,52 32,52 L32,52 Z" id="Shape"></path>
                <path d="M25,58 L15,58 C14.44727,58 14,57.55273 14,57 C14,56.44727 14.44727,56 15,56 L25,56 C25.55273,56 26,56.44727 26,57 C26,57.55273 25.55273,58 25,58 L25,58 Z" id="Shape"></path>
                <path d="M49,58 L39,58 C38.44727,58 38,57.55273 38,57 C38,56.44727 38.44727,56 39,56 L49,56 C49.55273,56 50,56.44727 50,57 C50,57.55273 49.55273,58 49,58 L49,58 Z" id="Shape"></path>
                <path d="M52.9502,42 L36,42 C35.44727,42 35,41.55273 35,41 C35,40.44727 35.44727,40 36,40 L52.9502,40 C55.61817,40 58.14551,38.83984 59.88282,36.81641 C61.54298,34.88379 62.2793,32.35547 61.90137,29.88184 C61.11426,24.76075 57.57715,20.51563 52.6709,18.80469 C52.2461,18.65625 51.97168,18.24219 52.00195,17.79297 C52.02343,17.48535 52.04004,17.24609 52.04004,17 C52.04004,12.03711 47.99805,8 43.03027,8 C42.06738,8 41.09863,8.1582 40.15234,8.46973 C39.71972,8.60938 39.24121,8.44239 38.99609,8.05664 C36.58008,4.26465 32.46973,2 28,2 C20.81543,2 14.96973,7.83203 14.96973,15 C14.96973,15.6123 15.02442,16.25488 15.1377,16.96191 C15.18067,17.23046 15.11231,17.50488 14.94922,17.72168 C14.78613,17.93848 14.54102,18.08008 14.27149,18.11231 C7.98633,18.87794 2.97754,23.77051 2.08985,30.01075 C1.73438,32.48536 2.45899,34.91016 4.13184,36.84083 C5.87109,38.84863 8.39258,40 11.0498,40 L28,40 C28.55273,40 29,40.44727 29,41 C29,41.55273 28.55273,42 28,42 L11.0498,42 C7.8125,42 4.74023,40.59668 2.62011,38.15039 C0.59179,35.80957 -0.32325,32.73926 0.10937,29.72754 C1.07714,22.92774 6.32421,17.52734 13.0332,16.28027 C12.99121,15.83984 12.96973,15.41504 12.96973,15 C12.96973,6.72852 19.71192,0 28,0 C32.90527,0 37.43359,2.36133 40.26172,6.35449 C41.17578,6.11914 42.10352,6 43.03027,6 C49.10156,6 54.04004,10.93457 54.04004,17 C54.04004,17.06055 54.03906,17.12109 54.03809,17.18164 C59.27539,19.28711 63.01661,23.97363 63.87793,29.5791 C64.34375,32.63086 63.44141,35.74316 61.40039,38.11914 C59.28223,40.58594 56.20215,42 52.9502,42 L52.9502,42 Z" id="Shape"></path>
                <path d="M36,46 C35.44727,46 35,45.55273 35,45 L35,33 C35,32.44727 35.44727,32 36,32 C36.55273,32 37,32.44727 37,33 L37,45 C37,45.55273 36.55273,46 36,46 L36,46 Z" id="Shape"></path>
                <path d="M28,46 C27.44727,46 27,45.55273 27,45 L27,33 C27,32.44727 27.44727,32 28,32 C28.55273,32 29,32.44727 29,33 L29,45 C29,45.55273 28.55273,46 28,46 L28,46 Z" id="Shape"></path>
            </g>
        </g>
    </g>
</svg>