<?xml version="1.0" encoding="UTF-8" standalone="no"?>
<svg width="64px" height="64px" viewBox="0 0 64 64" version="1.1" xmlns="http://www.w3.org/2000/svg" xmlns:xlink="http://www.w3.org/1999/xlink">
    <!-- Generator: Sketch 46 (44423) - http://www.bohemiancoding.com/sketch -->
    <title>intel icon</title>
    <desc>Created with Sketch.</desc>
    <defs></defs>
    <g id="Page-1" stroke="none" stroke-width="1" fill="none" fill-rule="evenodd">
        <g id="icons-copy" transform="translate(-558.000000, -407.000000)" fill="#EB8336">
            <g id="intel-icon" transform="translate(558.000000, 407.000000)">
                <path d="M32,64 C14.35547,64 0,49.64453 0,32 C0,14.35547 14.35547,0 32,0 C49.64453,0 64,14.35547 64,32 C64,49.64453 49.64453,64 32,64 L32,64 Z M32,2 C15.45801,2 2,15.45801 2,32 C2,48.54199 15.45801,62 32,62 C48.54199,62 62,48.54199 62,32 C62,15.45801 48.54199,2 32,2 L32,2 Z" id="Shape"></path>
                <path d="M32,60 C16.56055,60 4,47.43945 4,32 C4,16.56055 16.56055,4 32,4 C47.43945,4 60,16.56055 60,32 C60,47.43945 47.43945,60 32,60 L32,60 Z M32,6 C17.66309,6 6,17.66309 6,32 C6,46.33691 17.66309,58 32,58 C46.33691,58 58,46.33691 58,32 C58,17.66309 46.33691,6 32,6 L32,6 Z" id="Shape"></path>
                <path d="M32,28 C31.44727,28 31,27.55273 31,27 L31,15 C31,14.44727 31.44727,14 32,14 C32.55273,14 33,14.44727 33,15 L33,27 C33,27.55273 32.55273,28 32,28 L32,28 Z" id="Shape"></path>
                <path d="M17.68066,43.29004 C17.37304,43.29004 17.06933,43.14844 16.87402,42.88184 C16.54687,42.4375 16.64257,41.81153 17.08789,41.48438 L27.26855,34.00391 C27.71191,33.67578 28.33984,33.77246 28.66601,34.21778 C28.99316,34.66212 28.89746,35.28809 28.45214,35.61524 L18.27148,43.0957 C18.09375,43.22656 17.88574,43.29004 17.68066,43.29004 L17.68066,43.29004 Z" id="Shape"></path>
                <path d="M32,38 C28.69141,38 26,35.30859 26,32 C26,28.69141 28.69141,26 32,26 C35.30859,26 38,28.69141 38,32 C38,35.30859 35.30859,38 32,38 L32,38 Z M32,28 C29.79395,28 28,29.79395 28,32 C28,34.20605 29.79395,36 32,36 C34.20605,36 36,34.20605 36,32 C36,29.79395 34.20605,28 32,28 L32,28 Z" id="Shape"></path>
                <path d="M32,34 C30.89746,34 30,33.10254 30,32 C30,30.89746 30.89746,30 32,30 C33.10254,30 34,30.89746 34,32 C34,33.10254 33.10254,34 32,34 L32,34 Z M32.00098,32 C32,32 31.99902,32 31.99902,32.00098 L32,33 L32.00098,32 L32.00098,32 Z" id="Shape"></path>
                <path d="M32,41 C25.14355,41 18.66699,37.95312 14.23242,32.64062 C13.92285,32.26953 13.92285,31.73046 14.23242,31.35937 C18.66699,26.04688 25.14355,23 32,23 C38.85645,23 45.33301,26.04688 49.76758,31.35938 C50.07715,31.73047 50.07715,32.26954 49.76758,32.64063 C45.33301,37.95313 38.85645,41 32,41 L32,41 Z M16.32422,32 C20.35352,36.45898 26.01856,39 32,39 C37.98144,39 43.64648,36.45898 47.67578,32 C43.64648,27.54102 37.98145,25 32,25 C26.01855,25 20.35352,27.54102 16.32422,32 L16.32422,32 Z" id="Shape"></path>
                <path d="M32,12 C31.44727,12 31,11.55273 31,11 L31,9 C31,8.44727 31.44727,8 32,8 C32.55273,8 33,8.44727 33,9 L33,11 C33,11.55273 32.55273,12 32,12 L32,12 Z" id="Shape"></path>
                <path d="M32,56 C31.44727,56 31,55.55273 31,55 L31,53 C31,52.44727 31.44727,52 32,52 C32.55273,52 33,52.44727 33,53 L33,55 C33,55.55273 32.55273,56 32,56 L32,56 Z" id="Shape"></path>
                <path d="M55,33 L53,33 C52.44727,33 52,32.55273 52,32 C52,31.44727 52.44727,31 53,31 L55,31 C55.55273,31 56,31.44727 56,32 C56,32.55273 55.55273,33 55,33 L55,33 Z" id="Shape"></path>
                <path d="M11,33 L9,33 C8.44727,33 8,32.55273 8,32 C8,31.44727 8.44727,31 9,31 L11,31 C11.55273,31 12,31.44727 12,32 C12,32.55273 11.55273,33 11,33 L11,33 Z" id="Shape"></path>
                <path d="M46.84961,18.15039 C46.59375,18.15039 46.33789,18.05273 46.14258,17.85742 C45.75195,17.46679 45.75195,16.83398 46.14258,16.44336 L47.55664,15.0293 C47.94727,14.63867 48.58008,14.63867 48.9707,15.0293 C49.36132,15.41993 49.36133,16.05274 48.9707,16.44336 L47.55664,17.85742 C47.36133,18.05273 47.10547,18.15039 46.84961,18.15039 L46.84961,18.15039 Z" id="Shape"></path>
                <path d="M15.73633,49.26367 C15.48047,49.26367 15.22461,49.16601 15.0293,48.9707 C14.63867,48.58007 14.63867,47.94726 15.0293,47.55664 L16.44336,46.14258 C16.83399,45.75195 17.4668,45.75195 17.85742,46.14258 C18.24804,46.53321 18.24805,47.16602 17.85742,47.55664 L16.44336,48.9707 C16.24805,49.16602 15.99219,49.26367 15.73633,49.26367 L15.73633,49.26367 Z" id="Shape"></path>
                <path d="M48.26367,49.26367 C48.00781,49.26367 47.75195,49.16601 47.55664,48.9707 L46.14258,47.55664 C45.75195,47.16601 45.75195,46.5332 46.14258,46.14258 C46.53321,45.75196 47.16602,45.75195 47.55664,46.14258 L48.9707,47.55664 C49.36133,47.94727 49.36133,48.58008 48.9707,48.9707 C48.77539,49.16602 48.51953,49.26367 48.26367,49.26367 L48.26367,49.26367 Z" id="Shape"></path>
                <path d="M17.15039,18.15039 C16.89453,18.15039 16.63867,18.05273 16.44336,17.85742 L15.0293,16.44336 C14.63867,16.05273 14.63867,15.41992 15.0293,15.0293 C15.41993,14.63868 16.05274,14.63867 16.44336,15.0293 L17.85742,16.44336 C18.24805,16.83399 18.24805,17.4668 17.85742,17.85742 C17.66211,18.05273 17.40625,18.15039 17.15039,18.15039 L17.15039,18.15039 Z" id="Shape"></path>
                <path d="M23.96387,13.59863 C23.57227,13.59863 23.19922,13.36621 23.04004,12.98144 L22.27441,11.13378 C22.06347,10.62401 22.30566,10.03905 22.81543,9.82714 C23.32422,9.61718 23.91113,9.85741 24.12207,10.36816 L24.8877,12.21582 C25.09864,12.72559 24.85645,13.31055 24.34668,13.52246 C24.22168,13.57422 24.0918,13.59863 23.96387,13.59863 L23.96387,13.59863 Z" id="Shape"></path>
                <path d="M40.80176,54.24902 C40.41016,54.24902 40.03711,54.0166 39.87793,53.63183 L39.1123,51.78417 C38.90136,51.2744 39.14355,50.68944 39.65332,50.47753 C40.16113,50.26757 40.74902,50.5078 40.95996,51.01855 L41.72559,52.86621 C41.93653,53.37598 41.69434,53.96094 41.18457,54.17285 C41.05957,54.22461 40.92969,54.24902 40.80176,54.24902 L40.80176,54.24902 Z" id="Shape"></path>
                <path d="M51.40137,24.96387 C51.00977,24.96387 50.63672,24.73145 50.47754,24.34668 C50.2666,23.83691 50.50879,23.25098 51.01856,23.04004 L52.86622,22.27441 C53.37306,22.06445 53.96192,22.30468 54.17286,22.81543 C54.3838,23.3252 54.14161,23.91113 53.63184,24.12207 L51.78418,24.8877 C51.65918,24.93945 51.5293,24.96387 51.40137,24.96387 L51.40137,24.96387 Z" id="Shape"></path>
                <path d="M10.75098,41.80176 C10.35938,41.80176 9.98633,41.56934 9.82715,41.18457 C9.61621,40.6748 9.8584,40.08887 10.36817,39.87793 L12.21583,39.1123 C12.72267,38.90332 13.31153,39.14355 13.52247,39.65332 C13.73341,40.16309 13.49122,40.74902 12.98145,40.95996 L11.13379,41.72559 C11.00879,41.77734 10.87891,41.80176 10.75098,41.80176 L10.75098,41.80176 Z" id="Shape"></path>
                <path d="M40.03613,13.59863 C39.9082,13.59863 39.77832,13.57422 39.65332,13.52246 C39.14355,13.31055 38.90137,12.72558 39.1123,12.21582 L39.87793,10.36816 C40.08984,9.85742 40.67578,9.61621 41.18457,9.82714 C41.69434,10.03905 41.93652,10.62402 41.72559,11.13378 L40.95996,12.98144 C40.80078,13.36621 40.42773,13.59863 40.03613,13.59863 L40.03613,13.59863 Z" id="Shape"></path>
                <path d="M23.19824,54.24902 C23.07031,54.24902 22.94043,54.22461 22.81543,54.17285 C22.30566,53.96094 22.06348,53.37597 22.27441,52.86621 L23.04004,51.01855 C23.25098,50.50781 23.83887,50.2666 24.34668,50.47753 C24.85645,50.68944 25.09863,51.27441 24.8877,51.78417 L24.12207,53.63183 C23.96289,54.0166 23.58984,54.24902 23.19824,54.24902 L23.19824,54.24902 Z" id="Shape"></path>
                <path d="M53.24902,41.80176 C53.12109,41.80176 52.99121,41.77735 52.86621,41.72559 L51.01855,40.95996 C50.50878,40.74902 50.2666,40.16308 50.47753,39.65332 C50.68846,39.14356 51.27733,38.90234 51.78417,39.1123 L53.63183,39.87793 C54.1416,40.08887 54.38378,40.67481 54.17285,41.18457 C54.01367,41.56934 53.64063,41.80176 53.24902,41.80176 L53.24902,41.80176 Z" id="Shape"></path>
                <path d="M12.59863,24.96387 C12.4707,24.96387 12.34082,24.93946 12.21582,24.8877 L10.36816,24.12207 C9.85839,23.91113 9.61621,23.32519 9.82714,22.81543 C10.03808,22.30469 10.62694,22.06348 11.13378,22.27441 L12.98144,23.04004 C13.49121,23.25098 13.73339,23.83692 13.52246,24.34668 C13.36328,24.73145 12.99023,24.96387 12.59863,24.96387 L12.59863,24.96387 Z" id="Shape"></path>
            </g>
        </g>
    </g>
</svg>