<?xml version="1.0" encoding="UTF-8" standalone="no"?>
<svg width="70px" height="64px" viewBox="0 0 70 64" version="1.1" xmlns="http://www.w3.org/2000/svg" xmlns:xlink="http://www.w3.org/1999/xlink">
    <!-- Generator: Sketch 46 (44423) - http://www.bohemiancoding.com/sketch -->
    <title>seo media responsive design</title>
    <desc>Created with Sketch.</desc>
    <defs></defs>
    <g id="Page-1" stroke="none" stroke-width="1" fill="none" fill-rule="evenodd">
        <g id="icons-copy" transform="translate(-554.000000, -534.000000)" fill="#EB8336">
            <g id="seo-media-responsive-design" transform="translate(554.000000, 534.000000)">
                <g id="Proximo">
                    <g id="XMLID_175_">
                        <g id="XMLID_203_">
                            <path d="M38.0552967,52.4411062 L3.26188257,52.4411062 C1.46317179,52.4411062 0,50.9708979 0,49.163537 L0,3.27756914 C0,1.47020826 1.46317179,0 3.26188257,0 L66.3249456,0 C68.1236564,0 69.5868282,1.47020826 69.5868282,3.27756914 L69.5868282,22.942984 C69.5868282,23.5463298 69.1005141,24.035507 68.499534,24.035507 C67.8985539,24.035507 67.4122398,23.5463298 67.4122398,22.942984 L67.4122398,3.27756914 C67.4122398,2.67529396 66.9248711,2.18504609 66.3249456,2.18504609 L3.26188257,2.18504609 C2.66195713,2.18504609 2.17458838,2.67529396 2.17458838,3.27756914 L2.17458838,49.163537 C2.17458838,49.7658122 2.66195713,50.2560601 3.26188257,50.2560601 L38.0552967,50.2560601 C38.6562768,50.2560601 39.1425909,50.7452373 39.1425909,51.3485831 C39.1425909,51.951929 38.6562768,52.4411062 38.0552967,52.4411062 L38.0552967,52.4411062 Z" id="Shape"></path>
                        </g>
                        <g id="XMLID_206_" transform="translate(4.349177, 4.370092)">
                            <path d="M33.7061199,37.1457835 L1.08729419,37.1457835 C0.486314073,37.1457835 0,36.6566064 0,36.0532605 L0,1.09252305 C0,0.489177194 0.486314073,0 1.08729419,0 L59.8011805,0 C60.4021606,0 60.8884747,0.489177194 60.8884747,1.09252305 L60.8884747,16.3878457 C60.8884747,16.9911915 60.4021606,17.4803687 59.8011805,17.4803687 C59.2002004,17.4803687 58.7138863,16.9911915 58.7138863,16.3878457 L58.7138863,2.18504609 L2.17458838,2.18504609 L2.17458838,34.9607375 L33.7061199,34.9607375 C34.3071,34.9607375 34.7934141,35.4499146 34.7934141,36.0532605 C34.7934141,36.6566064 34.3071,37.1457835 33.7061199,37.1457835 L33.7061199,37.1457835 Z" id="Shape"></path>
                        </g>
                        <g id="XMLID_205_" transform="translate(26.095061, 50.256060)">
                            <path d="M14.1348245,13.1102765 L1.08729419,13.1102765 C0.761323392,13.1102765 0.453390805,12.9635726 0.246337372,12.7101837 C0.0403494874,12.4573192 -0.042480584,12.1244493 0.0212348555,11.8033022 L2.19582324,0.878071697 C2.29775707,0.367557528 2.74372165,0 3.26188257,0 L11.9602361,0 C12.5612162,0 13.0475303,0.489177194 13.0475303,1.09252305 C13.0475303,1.6958689 12.5612162,2.18504609 11.9602361,2.18504609 L4.15274619,2.18504609 L2.41349953,10.9252305 L14.1348245,10.9252305 C14.7358046,10.9252305 15.2221187,11.4144076 15.2221187,12.0177535 C15.2221187,12.6210994 14.7358046,13.1102765 14.1348245,13.1102765 L14.1348245,13.1102765 Z" id="Shape"></path>
                        </g>
                        <g id="XMLID_207_" transform="translate(0.000000, 43.700922)">
                            <path d="M38.0552967,2.18504609 L1.08729419,2.18504609 C0.486314073,2.18504609 0,1.6958689 0,1.09252305 C0,0.489177194 0.486314073,0 1.08729419,0 L38.0552967,0 C38.6562768,0 39.1425909,0.489177194 39.1425909,1.09252305 C39.1425909,1.6958689 38.6562768,2.18504609 38.0552967,2.18504609 L38.0552967,2.18504609 Z" id="Shape"></path>
                        </g>
                        <g id="XMLID_174_" transform="translate(21.745884, 61.181291)">
                            <path d="M18.4840012,2.18504609 L1.08729419,2.18504609 C0.486314073,2.18504609 0,1.6958689 0,1.09252305 C0,0.489177194 0.486314073,0 1.08729419,0 L18.4840012,0 C19.0849814,0 19.5712954,0.489177194 19.5712954,1.09252305 C19.5712954,1.6958689 19.0849814,2.18504609 18.4840012,2.18504609 L18.4840012,2.18504609 Z" id="Shape"></path>
                        </g>
                        <g id="XMLID_173_" transform="translate(36.968002, 19.665415)">
                            <path d="M18.4840012,43.7009218 L3.26188257,43.7009218 C1.46317179,43.7009218 0,42.2307136 0,40.4233527 L0,3.27756914 C0,1.47020826 1.46317179,0 3.26188257,0 L29.3569432,0 C31.1556539,0 32.6188257,1.47020826 32.6188257,3.27756914 L32.6188257,18.5728918 C32.6188257,19.1762376 32.1325116,19.6654148 31.5315315,19.6654148 C30.9305514,19.6654148 30.4442373,19.1762376 30.4442373,18.5728918 L30.4442373,3.27756914 C30.4442373,2.67529396 29.9568686,2.18504609 29.3569432,2.18504609 L3.26188257,2.18504609 C2.66195713,2.18504609 2.17458838,2.67529396 2.17458838,3.27756914 L2.17458838,40.4233527 C2.17458838,41.0256279 2.66195713,41.5158757 3.26188257,41.5158757 L18.4840012,41.5158757 C19.0849814,41.5158757 19.5712954,42.0050529 19.5712954,42.6083988 C19.5712954,43.2117446 19.0849814,43.7009218 18.4840012,43.7009218 L18.4840012,43.7009218 Z" id="Shape"></path>
                        </g>
                        <g id="XMLID_187_" transform="translate(41.317179, 24.035507)">
                            <path d="M11.9602361,34.9607375 L1.08729419,34.9607375 C0.486314073,34.9607375 0,34.4715603 0,33.8682144 L0,1.09252305 C0,0.489177194 0.486314073,0 1.08729419,0 L22.833178,0 C23.4341581,0 23.9204722,0.489177194 23.9204722,1.09252305 L23.9204722,12.0177535 C23.9204722,12.6210994 23.4341581,13.1102765 22.833178,13.1102765 C22.2321979,13.1102765 21.7458838,12.6210994 21.7458838,12.0177535 L21.7458838,2.18504609 L2.17458838,2.18504609 L2.17458838,32.7756914 L11.9602361,32.7756914 C12.5612162,32.7756914 13.0475303,33.2648686 13.0475303,33.8682144 C13.0475303,34.4715603 12.5612162,34.9607375 11.9602361,34.9607375 L11.9602361,34.9607375 Z" id="Shape"></path>
                        </g>
                        <g id="XMLID_204_" transform="translate(52.190121, 34.960737)">
                            <path d="M14.1348245,28.4055992 L3.26188257,28.4055992 C1.46317179,28.4055992 0,26.9353909 0,25.12803 L0,3.27756914 C0,1.47020826 1.46317179,0 3.26188257,0 L14.1348245,0 C15.9335353,0 17.3967071,1.47020826 17.3967071,3.27756914 L17.3967071,25.12803 C17.3967071,26.9353909 15.9335353,28.4055992 14.1348245,28.4055992 L14.1348245,28.4055992 Z M3.26188257,2.18504609 C2.66195713,2.18504609 2.17458838,2.67529396 2.17458838,3.27756914 L2.17458838,25.12803 C2.17458838,25.7303052 2.66195713,26.2205531 3.26188257,26.2205531 L14.1348245,26.2205531 C14.7347499,26.2205531 15.2221187,25.7303052 15.2221187,25.12803 L15.2221187,3.27756914 C15.2221187,2.67529396 14.7347499,2.18504609 14.1348245,2.18504609 L3.26188257,2.18504609 L3.26188257,2.18504609 Z" id="Shape"></path>
                        </g>
                        <g id="XMLID_138_" transform="translate(52.190121, 56.811198)">
                            <path d="M16.3094129,2.18504609 L1.08729419,2.18504609 C0.486314073,2.18504609 0,1.6958689 0,1.09252305 C0,0.489177194 0.486314073,0 1.08729419,0 L16.3094129,0 C16.910393,0 17.3967071,0.489177194 17.3967071,1.09252305 C17.3967071,1.6958689 16.910393,2.18504609 16.3094129,2.18504609 L16.3094129,2.18504609 Z" id="Shape"></path>
                        </g>
                        <g id="XMLID_140_" transform="translate(52.190121, 39.330830)">
                            <path d="M16.3094129,2.18504609 L1.08729419,2.18504609 C0.486314073,2.18504609 0,1.6958689 0,1.09252305 C0,0.489177194 0.486314073,0 1.08729419,0 L16.3094129,0 C16.910393,0 17.3967071,0.489177194 17.3967071,1.09252305 C17.3967071,1.6958689 16.910393,2.18504609 16.3094129,2.18504609 L16.3094129,2.18504609 Z" id="Shape"></path>
                        </g>
                    </g>
                </g>
            </g>
        </g>
    </g>
</svg>