<?xml version="1.0" encoding="UTF-8" standalone="no"?>
<svg width="659px" height="160px" viewBox="0 0 659 160" version="1.1" xmlns="http://www.w3.org/2000/svg" xmlns:xlink="http://www.w3.org/1999/xlink">
    <!-- Generator: Sketch 46 (44423) - http://www.bohemiancoding.com/sketch -->
    <title>logo</title>
    <desc>Created with Sketch.</desc>
    <defs></defs>
    <g id="Page-1" stroke="none" stroke-width="1" fill="none" fill-rule="evenodd">
        <g id="icons-copy" transform="translate(-261.000000, -1150.000000)" fill-rule="nonzero" fill="#EB8336">
            <g id="logo" transform="translate(261.000000, 1150.000000)">
                <g id="orange-side-logo-vector">
                    <g id="Group" transform="translate(143.399365, 55.053763)">
                        <path d="M31.5409854,33.3419355 C31.5409854,35.4848268 31.1755047,37.5187575 30.4445433,39.3710872 C29.7135818,41.2597372 28.6171397,42.8941458 27.1917649,44.274313 C25.7663902,45.6544803 24.0120827,46.7804062 21.9653908,47.5794504 C19.9186988,48.3784946 17.5430742,48.7780167 14.911613,48.7780167 C14.6192285,48.7780167 14.2902958,48.7780167 13.9248151,48.7416965 C9.64869078,48.7416965 5.08018189,47.9063321 0.146192285,46.2356033 L0.146192285,45.0733572 L0.146192285,33.9956989 L0.438576854,33.9956989 L1.24263442,33.9956989 L3.98373976,33.9956989 C4.82434539,33.9956989 5.33601839,34.395221 5.51875874,35.2305854 C5.62840296,35.8117085 5.81114331,37.627718 6.10352788,40.6786141 C8.00402758,41.2597372 11.0375175,41.5502987 15.1674495,41.5502987 C17.7258145,41.5502987 19.6628623,40.9691756 21.051689,39.7706093 C22.4405157,38.572043 23.134929,36.864994 23.134929,34.6131422 C23.134929,33.3782557 22.8059964,32.3249701 22.1846792,31.5622461 C21.563362,30.7632019 20.7227563,30.1094385 19.6994103,29.5646356 C18.6760644,29.0198327 17.469978,28.5839904 16.1542474,28.1844683 C14.8019688,27.8212664 13.4496902,27.3854241 12.0974116,26.9495818 C10.7451329,26.5137395 9.39285429,25.9689367 8.04057565,25.3514934 C6.72484509,24.7340502 5.51875874,23.935006 4.49541275,22.9543608 C3.47206676,21.9737157 2.63146112,20.7388292 2.01014391,19.2497013 C1.3888267,17.7605735 1.05989406,15.9445639 1.05989406,13.7653524 C1.05989406,12.0219833 1.42537477,10.3512545 2.11978813,8.68052569 C2.81420148,7.04611708 3.83754747,5.55698925 5.15327803,4.28578256 C6.46900859,3.01457587 8.1136718,1.99761051 10.0872676,1.2348865 C12.0243154,0.472162485 14.2537477,0.0726403823 16.7390166,0.0726403823 C21.4537178,0.0726403823 26.0222267,0.980645161 30.4810913,2.76033453 L30.4810913,14.9275986 L30.1887068,14.9275986 L29.3846492,14.9275986 L26.6800919,14.9275986 C25.8394863,14.9275986 25.3278133,14.5280765 25.145073,13.6927121 C25.0354287,13.111589 24.8526884,11.3318996 24.5603038,8.35364397 C22.8790925,7.62724014 20.3207276,7.22771804 16.8486608,7.22771804 C15.6060264,7.22771804 14.5461323,7.37299881 13.6324305,7.66356033 C12.7187288,7.95412186 11.9512193,8.38996416 11.293354,8.89844683 C10.6720368,9.4432497 10.1969119,10.060693 9.86797921,10.7870968 C9.57559464,11.5135006 9.39285429,12.3125448 9.39285429,13.2205496 C9.39285429,14.3464755 9.72178693,15.2908005 10.3431041,16.0172043 C10.9644213,16.7799283 11.805027,17.3973716 12.828373,17.9421744 C13.851719,18.4869773 15.0578053,18.9591398 16.3735359,19.3586619 C17.6892664,19.758184 19.0415451,20.2303465 20.4303718,20.702509 C21.8191985,21.1746714 23.1714771,21.7194743 24.4872077,22.3369176 C25.8029382,22.9543608 27.0090246,23.753405 28.0323706,24.69773 C29.0557166,25.642055 29.8963222,26.8406213 30.5176394,28.2207885 C31.2120528,29.6735962 31.5409854,31.344325 31.5409854,33.3419355 L31.5409854,33.3419355 Z" id="Shape"></path>
                        <path d="M87.9712073,0.61744325 L87.9712073,11.8767025 L87.6788227,11.8767025 L86.8747651,11.8767025 L84.1336598,11.8767025 C83.2930542,11.8767025 82.7813812,11.4771804 82.5986408,10.641816 C82.5255447,10.2422939 82.4159004,9.33428913 82.2697082,7.88148148 L72.5113732,7.88148148 L72.5113732,41.6955795 C73.3519788,41.8408602 73.973296,41.9498208 74.484969,42.0224612 C74.9600939,42.0951016 75.2890266,42.1677419 75.4717669,42.2040621 C75.6545073,42.2403823 75.8006996,42.2767025 75.8737957,42.2767025 C76.9702378,42.4946237 77.5184589,43.1847073 77.5184589,44.3469534 L77.5184589,48.2332139 L72.5113732,48.2332139 L63.5936438,48.2332139 L58.5865581,48.2332139 L58.5865581,44.3469534 C58.5865581,43.2210275 59.1347791,42.5309438 60.2312213,42.2767025 C60.3408655,42.2767025 60.4505097,42.2403823 60.63325,42.2040621 C60.8159904,42.1677419 61.144923,42.0951016 61.620048,42.0224612 C62.0951729,41.9498208 62.7530382,41.80454 63.5936438,41.6955795 L63.5936438,7.88148148 L53.7987607,7.88148148 C53.6525684,9.33428913 53.5429242,10.2422939 53.4698281,10.641816 C53.2870877,11.4771804 52.7754147,11.8767025 51.9348091,11.8767025 L49.1937038,11.8767025 L48.3896462,11.8767025 L48.0972616,11.8767025 L48.0972616,0.61744325 L49.0840596,0.61744325 L49.1937038,0.61744325 L86.8747651,0.61744325 L86.9113132,0.61744325 L87.9712073,0.61744325 L87.9712073,0.61744325 Z" id="Shape"></path>
                        <path d="M149.627803,44.8917563 L149.627803,48.2695341 L147.288727,48.2695341 L142.098901,48.2695341 L141.002458,48.2695341 L140.417689,48.2695341 L133.473556,48.2695341 L133.473556,44.8917563 C133.473556,44.1290323 133.912133,43.5479092 134.789286,43.2210275 C134.935479,43.1483871 135.374056,42.9667861 136.105017,42.6762246 L135.84918,41.986141 L133.473556,35.521147 L114.395463,35.521147 L111.910194,42.2767025 L111.764002,42.7125448 C112.494963,43.0031063 112.93354,43.1847073 113.079732,43.2573477 C113.956886,43.6205496 114.395463,44.1653524 114.395463,44.9280765 L114.395463,48.3058542 L107.451329,48.3058542 L106.830012,48.3058542 L105.73357,48.3058542 L100.507196,48.3058542 L98.1681191,48.3058542 L98.1681191,44.9280765 C98.1681191,44.1653524 98.606696,43.5842294 99.4838497,43.2573477 C99.8493304,43.1120669 101.055417,42.6035842 103.102109,41.7318996 L119.329452,0.653763441 L128.429922,0.653763441 L144.657266,41.7318996 C146.740506,42.6035842 147.946592,43.1120669 148.275525,43.2573477 C149.189226,43.5479092 149.627803,44.1290323 149.627803,44.8917563 L149.627803,44.8917563 Z M116.661443,29.2014337 L131.171027,29.2014337 L125.725365,14.4191159 C125.469528,13.6927121 125.177144,12.8573477 124.848211,11.9493429 C124.519278,11.0050179 124.226894,9.95173238 123.897961,8.82580645 C123.569029,9.95173238 123.276644,11.0050179 122.984259,11.9493429 C122.691875,12.9299881 122.39949,13.7653524 122.107106,14.4917563 L116.661443,29.2014337 L116.661443,29.2014337 Z" id="Shape"></path>
                        <path d="M207.30066,34.2499403 C207.30066,36.283871 206.898631,38.1362007 206.131121,39.8432497 C205.363612,41.5502987 204.230622,43.0394265 202.768699,44.274313 C201.270228,45.5091995 199.479372,46.4898447 197.286488,47.1799283 C195.130152,47.8700119 192.644883,48.2332139 189.86723,48.2332139 L171.775934,48.2332139 L166.768849,48.2332139 L166.768849,44.3469534 C166.768849,43.2210275 167.31707,42.5309438 168.413512,42.2767025 C168.523156,42.2767025 168.6328,42.2403823 168.815541,42.2040621 C168.998281,42.1677419 169.327214,42.0951016 169.802339,42.0224612 C170.277463,41.9498208 170.935329,41.80454 171.775934,41.6955795 L171.775934,7.11875747 C170.935329,6.9734767 170.277463,6.86451613 169.802339,6.75555556 C169.327214,6.68291517 168.998281,6.61027479 168.815541,6.5739546 C168.6328,6.53763441 168.486608,6.50131422 168.413512,6.50131422 C167.31707,6.28339307 166.768849,5.59330944 166.768849,4.43106332 L166.768849,0.544802867 L171.775934,0.544802867 L188.332211,0.544802867 C191.475345,0.544802867 194.143354,0.835364397 196.372786,1.45280765 C198.602219,2.0339307 200.429622,2.90561529 201.854997,3.99522103 C203.280372,5.08482676 204.340266,6.42867384 204.998131,7.99044205 C205.655996,9.55221027 205.984929,11.2955795 205.984929,13.2568698 C205.984929,14.3827957 205.802189,15.4360812 205.473256,16.4530466 C205.144323,17.4700119 204.63265,18.4143369 203.938237,19.3223417 C203.243824,20.2303465 202.36667,21.0293907 201.270228,21.7557945 C200.210334,22.4821983 198.931151,23.0996416 197.43268,23.6081243 C204.011333,25.1335723 207.30066,28.6566308 207.30066,34.2499403 L207.30066,34.2499403 Z M180.693664,21.2473118 L187.820538,21.2473118 C190.854028,21.2473118 193.156556,20.702509 194.728123,19.6129032 C196.29969,18.5232975 197.0672,16.7799283 197.0672,14.3827957 C197.0672,11.9130227 196.372786,10.1333333 194.947412,9.08004779 C193.522037,8.02676225 191.329152,7.48195938 188.332211,7.48195938 L180.693664,7.48195938 L180.693664,21.2473118 L180.693664,21.2473118 Z M198.492574,34.0683393 C198.492574,33.051374 198.309834,32.107049 197.980901,31.2716846 C197.651969,30.4363202 197.140296,29.7462366 196.409334,29.1651135 C195.714921,28.5839904 194.801219,28.1481481 193.704777,27.8212664 C192.608335,27.5307049 191.256056,27.3491039 189.684489,27.3491039 L180.657116,27.3491039 L180.657116,41.3323775 L189.721037,41.3323775 C191.365701,41.3323775 192.754527,41.1507766 193.887517,40.7512545 C195.020508,40.3517324 195.897661,39.8432497 196.555527,39.1531661 C197.213392,38.4994026 197.725065,37.7366786 198.017449,36.864994 C198.346382,35.9933094 198.492574,35.0489845 198.492574,34.0683393 L198.492574,34.0683393 Z" id="Shape"></path>
                        <path d="M246.041615,6.61027479 C245.858875,6.64659498 245.529942,6.71923536 245.054817,6.79187575 C244.579692,6.86451613 243.921827,7.00979689 243.081221,7.11875747 L243.081221,41.6955795 C243.921827,41.8408602 244.543144,41.9498208 245.054817,42.0224612 C245.529942,42.0951016 245.858875,42.1677419 246.041615,42.2040621 C246.224355,42.2403823 246.370548,42.2767025 246.443644,42.2767025 C247.540086,42.4946237 248.088307,43.1847073 248.088307,44.3469534 L248.088307,48.2332139 L243.081221,48.2332139 L234.126944,48.2332139 L229.119858,48.2332139 L229.119858,44.3469534 C229.119858,43.2210275 229.668079,42.5309438 230.764521,42.2767025 C230.874165,42.2767025 230.98381,42.2403823 231.16655,42.2040621 C231.34929,42.1677419 231.678223,42.0951016 232.153348,42.0224612 C232.628473,41.9498208 233.286338,41.80454 234.126944,41.6955795 L234.126944,7.11875747 C233.286338,6.9734767 232.628473,6.86451613 232.153348,6.79187575 C231.678223,6.71923536 231.34929,6.64659498 231.16655,6.61027479 C230.98381,6.5739546 230.837617,6.53763441 230.764521,6.53763441 C229.668079,6.31971326 229.119858,5.62962963 229.119858,4.46738351 L229.119858,0.581123059 L234.126944,0.581123059 L243.081221,0.581123059 L248.088307,0.581123059 L248.088307,4.46738351 C248.088307,5.59330944 247.540086,6.28339307 246.443644,6.53763441 C246.334,6.5739546 246.224355,6.61027479 246.041615,6.61027479 L246.041615,6.61027479 Z" id="Shape"></path>
                        <path d="M303.385539,36.864994 L303.385539,43.511589 L303.385539,44.7827957 L303.385539,48.2332139 L301.813972,48.2332139 L301.631231,48.2332139 L273.708505,48.2332139 L268.701419,48.2332139 L268.701419,44.3469534 C268.701419,43.2210275 269.24964,42.5309438 270.346082,42.2767025 C270.455727,42.2767025 270.565371,42.2403823 270.748111,42.2040621 C270.930851,42.1677419 271.259784,42.0951016 271.734909,42.0224612 C272.210034,41.9498208 272.867899,41.80454 273.708505,41.6955795 L273.708505,7.11875747 C272.867899,6.9734767 272.210034,6.86451613 271.734909,6.79187575 C271.259784,6.71923536 270.930851,6.64659498 270.748111,6.61027479 C270.565371,6.5739546 270.419178,6.53763441 270.346082,6.53763441 C269.24964,6.31971326 268.701419,5.62962963 268.701419,4.46738351 L268.701419,0.581123059 L273.708505,0.581123059 L282.626234,0.581123059 L287.63332,0.581123059 L287.63332,4.46738351 C287.63332,5.59330944 287.085099,6.28339307 285.988657,6.53763441 C285.879013,6.53763441 285.769368,6.5739546 285.586628,6.61027479 C285.403888,6.64659498 285.074955,6.71923536 284.59983,6.79187575 C284.124705,6.86451613 283.46684,7.00979689 282.662782,7.11875747 L282.662782,40.8965352 L298.086068,40.8965352 C298.232261,39.2258065 298.305357,38.2814815 298.341905,38.0272401 C298.524645,37.1918757 299.036318,36.7923536 299.876924,36.7923536 L303.385539,36.7923536 L303.385539,36.864994 Z" id="Shape"></path>
                        <path d="M340.920408,6.61027479 C340.737667,6.64659498 340.408735,6.71923536 339.93361,6.79187575 C339.458485,6.86451613 338.80062,7.00979689 337.960014,7.11875747 L337.960014,41.6955795 C338.80062,41.8408602 339.458485,41.9498208 339.93361,42.0224612 C340.408735,42.0951016 340.737667,42.1677419 340.920408,42.2040621 C341.103148,42.2403823 341.24934,42.2767025 341.322436,42.2767025 C342.418879,42.4946237 342.9671,43.1847073 342.9671,44.3469534 L342.9671,48.2332139 L337.960014,48.2332139 L329.005736,48.2332139 L323.998651,48.2332139 L323.998651,44.3469534 C323.998651,43.2210275 324.546872,42.5309438 325.643314,42.2767025 C325.752958,42.2767025 325.862602,42.2403823 326.045343,42.2040621 C326.228083,42.1677419 326.557016,42.0951016 327.032141,42.0224612 C327.507266,41.9498208 328.165131,41.80454 329.005736,41.6955795 L329.005736,7.11875747 C328.165131,6.9734767 327.507266,6.86451613 327.032141,6.79187575 C326.557016,6.71923536 326.228083,6.64659498 326.045343,6.61027479 C325.862602,6.5739546 325.71641,6.53763441 325.643314,6.53763441 C324.546872,6.31971326 323.998651,5.62962963 323.998651,4.46738351 L323.998651,0.581123059 L329.005736,0.581123059 L337.960014,0.581123059 L342.9671,0.581123059 L342.9671,4.46738351 C342.9671,5.59330944 342.418879,6.28339307 341.322436,6.53763441 C341.24934,6.5739546 341.103148,6.61027479 340.920408,6.61027479 L340.920408,6.61027479 Z" id="Shape"></path>
                        <path d="M403.125225,0.61744325 L403.125225,11.8767025 L402.83284,11.8767025 L402.028783,11.8767025 L399.287677,11.8767025 C398.447072,11.8767025 397.935399,11.4771804 397.752658,10.641816 C397.679562,10.2422939 397.569918,9.33428913 397.423726,7.88148148 L387.665391,7.88148148 L387.665391,41.6955795 C388.505996,41.8408602 389.127314,41.9498208 389.638987,42.0224612 C390.15066,42.0951016 390.443044,42.1677419 390.625784,42.2040621 C390.808525,42.2403823 390.954717,42.2767025 391.027813,42.2767025 C392.124255,42.4946237 392.672476,43.1847073 392.672476,44.3469534 L392.672476,48.2332139 L387.665391,48.2332139 L378.747661,48.2332139 L373.740576,48.2332139 L373.740576,44.3469534 C373.740576,43.2210275 374.288797,42.5309438 375.385239,42.2767025 C375.494883,42.2767025 375.604527,42.2403823 375.787268,42.2040621 C375.970008,42.1677419 376.298941,42.0951016 376.774065,42.0224612 C377.24919,41.9498208 377.907056,41.80454 378.747661,41.6955795 L378.747661,7.88148148 L368.952778,7.88148148 C368.806586,9.33428913 368.696942,10.2422939 368.623846,10.641816 C368.441105,11.4771804 367.929432,11.8767025 367.088827,11.8767025 L364.347721,11.8767025 L363.543664,11.8767025 L363.251279,11.8767025 L363.251279,0.61744325 L364.238077,0.61744325 L364.347721,0.61744325 L402.028783,0.61744325 L402.065331,0.61744325 L403.125225,0.61744325 L403.125225,0.61744325 Z" id="Shape"></path>
                        <path d="M466.49958,44.8917563 L466.49958,48.2695341 L464.160504,48.2695341 L458.970677,48.2695341 L457.874235,48.2695341 L457.289466,48.2695341 L450.345333,48.2695341 L450.345333,44.8917563 C450.345333,44.1290323 450.78391,43.5479092 451.661063,43.2210275 C451.807256,43.1483871 452.245832,42.9667861 452.976794,42.6762246 L452.720957,41.986141 L450.345333,35.521147 L431.26724,35.521147 L428.781971,42.2767025 L428.635778,42.7125448 C429.36674,43.0031063 429.805317,43.1847073 429.951509,43.2573477 C430.828663,43.6205496 431.26724,44.1653524 431.26724,44.9280765 L431.26724,48.3058542 L424.359654,48.3058542 L423.738337,48.3058542 L422.641895,48.3058542 L417.378973,48.3058542 L415.039896,48.3058542 L415.039896,44.9280765 C415.039896,44.1653524 415.478473,43.5842294 416.355627,43.2573477 C416.721107,43.1120669 417.927194,42.6035842 419.973886,41.7318996 L436.201229,0.653763441 L445.301699,0.653763441 L461.529042,41.7318996 C463.612283,42.6035842 464.818369,43.1120669 465.147302,43.2573477 C466.061003,43.5479092 466.49958,44.1290323 466.49958,44.8917563 L466.49958,44.8917563 Z M433.496672,29.2014337 L448.006256,29.2014337 L442.560594,14.4191159 C442.304757,13.6927121 442.012372,12.8573477 441.68344,11.9493429 C441.354507,11.0050179 441.062123,9.95173238 440.73319,8.82580645 C440.404257,9.95173238 440.111873,11.0050179 439.819488,11.9493429 C439.527104,12.9299881 439.234719,13.7653524 438.942335,14.4917563 L433.496672,29.2014337 L433.496672,29.2014337 Z" id="Shape"></path>
                        <path d="M514.81613,33.3419355 C514.81613,35.4848268 514.45065,37.5187575 513.719688,39.3710872 C512.988727,41.2597372 511.892285,42.8941458 510.46691,44.274313 C509.041535,45.6544803 507.287228,46.7804062 505.240536,47.5794504 C503.193844,48.3784946 500.818219,48.7780167 498.186758,48.7780167 C497.894373,48.7780167 497.565441,48.7780167 497.19996,48.7416965 C492.923836,48.7416965 488.355327,47.9063321 483.421337,46.2356033 L483.421337,45.0733572 L483.421337,33.9956989 L483.713722,33.9956989 L484.517779,33.9956989 L487.258885,33.9956989 C488.09949,33.9956989 488.611163,34.395221 488.793904,35.2305854 C488.903548,35.8117085 489.086288,37.627718 489.378673,40.6786141 C491.279172,41.2597372 494.312662,41.5502987 498.442594,41.5502987 C501.000959,41.5502987 502.938007,40.9691756 504.326834,39.7706093 C505.715661,38.572043 506.410074,36.864994 506.410074,34.6131422 C506.410074,33.3782557 506.081141,32.3249701 505.459824,31.5622461 C504.838507,30.7995221 503.997901,30.1094385 502.974555,29.5646356 C501.951209,29.0198327 500.745123,28.5839904 499.429392,28.1844683 C498.077114,27.8212664 496.724835,27.3854241 495.372556,26.9495818 C494.020278,26.5137395 492.667999,25.9689367 491.31572,25.3514934 C489.99999,24.7340502 488.793904,23.935006 487.770558,22.9543608 C486.747212,21.9737157 485.906606,20.7388292 485.285289,19.2497013 C484.663972,17.7605735 484.335039,15.9445639 484.335039,13.7653524 C484.335039,12.0219833 484.70052,10.3512545 485.394933,8.68052569 C486.089346,7.04611708 487.112692,5.55698925 488.428423,4.28578256 C489.780701,3.01457587 491.388817,1.99761051 493.362412,1.2348865 C495.29946,0.472162485 497.528893,0.0726403823 500.014161,0.0726403823 C504.728863,0.0726403823 509.297371,0.980645161 513.756236,2.76033453 L513.756236,14.9275986 L513.463852,14.9275986 L512.659794,14.9275986 L509.918689,14.9275986 C509.078083,14.9275986 508.56641,14.5280765 508.38367,13.6927121 C508.274025,13.111589 508.091285,11.3318996 507.798901,8.35364397 C506.117689,7.62724014 503.559324,7.22771804 500.087258,7.22771804 C498.844623,7.22771804 497.784729,7.37299881 496.871027,7.66356033 C495.957326,7.95412186 495.189816,8.38996416 494.568499,8.89844683 C493.947182,9.4432497 493.472057,10.060693 493.143124,10.7870968 C492.850739,11.5135006 492.667999,12.3125448 492.667999,13.2205496 C492.667999,14.3464755 492.996932,15.2908005 493.618249,16.0172043 C494.239566,16.7799283 495.080172,17.3973716 496.103518,17.9421744 C497.126864,18.4869773 498.33295,18.9591398 499.648681,19.3586619 C500.964411,19.758184 502.31669,20.2303465 503.705517,20.702509 C505.094343,21.1746714 506.446622,21.7194743 507.762352,22.3369176 C509.078083,22.9543608 510.284169,23.753405 511.307515,24.69773 C512.330861,25.642055 513.171467,26.8406213 513.792784,28.2207885 C514.487198,29.6735962 514.81613,31.344325 514.81613,33.3419355 L514.81613,33.3419355 Z" id="Shape"></path>
                    </g>
                    <g id="lighthouse">
                        <path d="M72.0912689,14.6118721 L72.0912689,8.40182648 L55.0661597,0.474885845 C54.4071232,0.182648402 53.6748604,0.182648402 53.0158239,0.474885845 L35.4781308,8.40182648 L35.4781308,14.6118721 C41.7023643,13.2968037 47.5238532,12.6392694 53.8579261,12.6392694 C60.1553859,12.6392694 66.2331668,13.2968037 72.0912689,14.6118721 L72.0912689,14.6118721 Z" id="Shape"></path>
                        <path d="M39.1394446,18.630137 L39.1394446,49.6073059 C44.6314153,50.4840183 48.8419262,50.9589041 53.8945392,50.9589041 C58.9837654,50.9589041 65.1347726,50.4840183 68.7960864,49.5707763 L68.7960864,18.6666667 C65.1347726,17.7899543 58.9837654,17.3150685 53.8945392,17.3150685 C48.8785393,17.3150685 44.6314153,17.7899543 39.1394446,18.630137 L39.1394446,18.630137 Z M64.8418675,34.2283105 L58.324729,37.5525114 L54.9929334,44.0547945 L51.6611378,37.5525114 L45.1439992,34.2283105 L51.6611378,30.9041096 L54.9929334,24.4018265 L58.324729,30.9041096 L64.8418675,34.2283105 L64.8418675,34.2283105 Z" id="Shape"></path>
                        <path d="M54.5901889,64.7305936 C59.935707,64.7305936 64.7686413,64.2191781 69.8944806,63.196347 L72.0912689,56.2922374 L72.0912689,53.6986301 C66.2331668,55.0136986 60.1187727,55.6712329 53.8579261,55.6712329 C47.5238532,55.6712329 41.7023643,54.9771689 35.4781308,53.6621005 L35.4781308,56.2922374 L38.4071818,63.1598174 C43.6062474,64.2191781 49.1714444,64.7305936 54.5901889,64.7305936 L54.5901889,64.7305936 Z" id="Shape"></path>
                        <path d="M104.347444,40.9497717 L103.358889,40.8767123 C93.4367284,37.5525114 84.1736044,35.2146119 72.0912689,33.8995434 L72.0912689,39.086758 C83.4413417,40.3652968 92.4115605,42.5936073 101.821137,45.7351598 L102.480173,45.8082192 C102.480173,78.6484018 93.4001152,108.383562 78.3887286,129.789954 L68.4665682,67.6894977 C63.7068603,68.4931507 58.9105392,68.9315068 54.0043787,68.9315068 C49.061605,68.9315068 44.1920577,68.5296804 39.3957366,67.6894977 L29.436963,129.497717 C14.572029,108.127854 5.3821313,78.5388128 5.34551816,45.8447489 L5.27229188,45.7716895 C14.8649341,42.5570776 24.0914449,40.2922374 34.3431235,39.0502283 L34.3431235,33.8630137 C22.9930507,35.1415525 13.7299268,37.5159817 3.62470067,40.913242 L3.55147439,40.9863014 L0.109839414,42.1552511 L0.146452552,45.8447489 C0.146452552,69.9178082 5.05261305,93.260274 14.2791238,113.278539 C18.7459267,122.995434 24.2012843,131.799087 30.3889046,139.360731 C36.7229775,147.068493 43.7527,153.388128 51.3316196,158.210046 L54.1142181,159.96347 L56.8968166,158.210046 C64.4757362,153.388128 71.5420718,147.031963 77.8395315,139.360731 C84.063765,131.799087 89.2262175,122.995434 93.6930203,113.278539 C102.919531,93.2237443 107.532787,69.9178082 107.532787,45.8812785 L107.532787,42.1917808 L104.347444,40.9497717 L104.347444,40.9497717 Z" id="Shape"></path>
                    </g>
                </g>
            </g>
        </g>
    </g>
</svg>